<svg width="26" height="26" viewBox="0 0 26 26" fill="none" xmlns="http://www.w3.org/2000/svg">
<path d="M2.99609 15.001L5.5477 10.7484C5.84136 10.2589 6.26851 9.86337 6.77904 9.6081L7.36447 9.31539C7.78121 9.10702 8.24074 8.99854 8.70667 8.99854H23.0044" stroke="#7D818E" stroke-width="1.5" stroke-linecap="round" stroke-linejoin="round"/>
<path d="M4.99609 22.0038L10.7604 19.9209C11.5649 19.6302 12.2551 19.0893 12.7297 18.3776L15.7238 13.8878C16.1593 13.2348 16.0733 12.3651 15.5183 11.8101V11.8101C14.8754 11.1672 13.8331 11.1671 13.1901 11.8099L10.9986 14.0004H8.99776" stroke="#7D818E" stroke-width="1.5" stroke-linecap="round" stroke-linejoin="round"/>
<path d="M14.9833 15.0011H20.6886C21.9912 14.9774 23.0282 13.9027 23.0054 12.6001V8.39831C23.0282 7.0957 21.9912 6.02098 20.6886 5.99731H13.3171C12.0145 6.02098 10.9775 7.0957 11.0004 8.39831V8.39831V14.0006" stroke="#7D818E" stroke-width="1.5" stroke-linecap="round" stroke-linejoin="round"/>
</svg>
