<svg width="33" height="10" viewBox="0 0 33 10" fill="none" xmlns="http://www.w3.org/2000/svg">
<path fill-rule="evenodd" clip-rule="evenodd" d="M29.5975 0H23.2695C23.6097 2.10931 25.651 4.08254 27.8964 4.08254H32.9315C32.9996 3.87841 32.9996 3.60624 32.9996 3.40212C32.9996 1.49693 31.5027 0 29.5975 0Z" fill="url(#paint0_linear_979_28235)"/>
<path fill-rule="evenodd" clip-rule="evenodd" d="M23.8125 4.42273V9.5259H26.8744V6.80421H29.5961C31.093 6.80421 32.3858 5.78358 32.7941 4.42273H23.8125Z" fill="#4DB45F"/>
<path fill-rule="evenodd" clip-rule="evenodd" d="M12.9297 0V9.52593H15.6514C15.6514 9.52593 16.3318 9.52593 16.672 8.8455C18.5092 5.17122 19.0535 4.08254 19.0535 4.08254H19.3937V9.52593H22.4556V0H19.7339C19.7339 0 19.0535 0.0680424 18.7133 0.680423C17.1483 3.81037 16.3318 5.44339 16.3318 5.44339H15.9916V0H12.9297Z" fill="#4DB45F"/>
<path fill-rule="evenodd" clip-rule="evenodd" d="M0 9.52593V0H3.0619C3.0619 0 3.94646 0 4.42275 1.36085C5.64751 4.96709 5.7836 5.44339 5.7836 5.44339C5.7836 5.44339 6.05577 4.55884 7.14444 1.36085C7.62074 0 8.50529 0 8.50529 0H11.5672V9.52593H8.50529V4.42275H8.16508L6.46402 9.52593H5.10317L3.40212 4.42275H3.0619V9.52593H0Z" fill="#4DB45F"/>
<defs>
<linearGradient id="paint0_linear_979_28235" x1="23.252" y1="2.04127" x2="32.9996" y2="2.04127" gradientUnits="userSpaceOnUse">
<stop stop-color="#00B4E6"/>
<stop offset="1" stop-color="#088CCB"/>
</linearGradient>
</defs>
</svg>
