<svg width="35" height="15" viewBox="0 0 35 15" fill="none" xmlns="http://www.w3.org/2000/svg">
<path d="M15.1481 13.3246H12.3164L14.0876 2.0603H16.9191L15.1481 13.3246Z" fill="#00579F"/>
<path d="M25.4123 2.33552C24.8538 2.10761 23.9678 1.85596 22.8725 1.85596C20.0761 1.85596 18.1069 3.38974 18.0948 5.58259C18.0716 7.20047 19.5047 8.0991 20.5766 8.6385C21.6721 9.18978 22.0445 9.54954 22.0445 10.0409C22.0333 10.7956 21.1593 11.1434 20.344 11.1434C19.2134 11.1434 18.6077 10.964 17.6871 10.5442L17.3142 10.3642L16.918 12.8928C17.5822 13.204 18.8058 13.4802 20.0761 13.4923C23.0473 13.4923 24.9817 11.9823 25.0045 9.64542C25.0159 8.36316 24.2592 7.38061 22.6277 6.57772C21.6373 6.06232 21.0307 5.71478 21.0307 5.18744C21.0424 4.70803 21.5437 4.217 22.6618 4.217C23.5823 4.19294 24.2587 4.42054 24.771 4.6483L25.0272 4.76792L25.4123 2.33552Z" fill="#00579F"/>
<path d="M29.1779 9.33405C29.4112 8.68695 30.3085 6.18241 30.3085 6.18241C30.2967 6.20646 30.5413 5.52334 30.6811 5.10398L30.8789 6.07458C30.8789 6.07458 31.4152 8.77089 31.5316 9.33405C31.0891 9.33405 29.7373 9.33405 29.1779 9.33405ZM32.6733 2.0603H30.483C29.8076 2.0603 29.2944 2.26385 29.003 2.99491L24.7969 13.3245H27.7681C27.7681 13.3245 28.2573 11.9341 28.3624 11.6347C28.6884 11.6347 31.5787 11.6347 31.9981 11.6347C32.0793 12.0302 32.3359 13.3245 32.3359 13.3245H34.9578L32.6733 2.0603Z" fill="#00579F"/>
<path d="M9.95213 2.0603L7.17897 9.74151L6.87593 8.18367C6.36323 6.38611 4.75531 4.43313 2.96094 3.46205L5.50105 13.3126H8.49549L12.9464 2.0603H9.95213Z" fill="#00579F"/>
<path d="M4.60252 2.0603H0.0466088L0 2.2879C3.5539 3.22266 5.90759 5.47588 6.87458 8.18415L5.8842 3.00717C5.72114 2.28774 5.22005 2.08403 4.60252 2.0603Z" fill="#FAA61A"/>
</svg>
