<svg width="15" height="15" viewBox="0 0 15 15" fill="none" xmlns="http://www.w3.org/2000/svg">
<path d="M1.17189 2.46973H12.8906C13.5352 2.46973 14.0625 2.99707 14.0625 3.64161V5.04788C14.0625 5.69242 13.5352 6.21976 12.8906 6.21976H1.17189C0.527342 6.2197 0 5.69236 0 5.04785V3.64158C0 2.99707 0.527342 2.46973 1.17189 2.46973Z" fill="#A86A3F"/>
<path d="M3.73828 3.72324L11.0742 1.77794C11.3203 1.70763 11.5781 1.85997 11.6484 2.10607L12.8672 6.60608C12.9375 6.85218 12.7851 7.10997 12.539 7.18028L2.98829 9.72323C2.74219 9.79354 2.48439 9.6412 2.41408 9.3951L1.52344 6.09043L3.73828 3.72324Z" fill="#5EBA6D"/>
<path d="M11.591 6.46531L10.009 6.88717C9.88012 6.92234 9.75119 6.852 9.72778 6.7231C9.69261 6.5942 9.76295 6.46528 9.89184 6.44186L11.2512 6.07858L10.5247 3.35984L9.1653 3.72312C9.0364 3.75829 8.90747 3.68795 8.88405 3.55905C8.84888 3.43015 8.91922 3.30123 9.04812 3.27781L10.6301 2.85595C10.759 2.82078 10.888 2.89112 10.9114 3.02001L11.7551 6.18406C11.7902 6.31296 11.7199 6.44186 11.591 6.46531ZM5.02854 8.23485L3.44652 8.65671C3.31762 8.69188 3.18869 8.62154 3.16527 8.49264L2.32152 5.32859C2.28635 5.19969 2.35669 5.07076 2.48559 5.04735L4.06761 4.62549C4.19651 4.59032 4.32544 4.66066 4.34885 4.78955C4.38402 4.91845 4.31368 5.04738 4.18479 5.07079L2.82542 5.43407L3.55197 8.15281L4.91134 7.78954C5.04023 7.75437 5.16916 7.82471 5.19258 7.9536C5.22775 8.07078 5.15744 8.19968 5.02854 8.23485Z" fill="#B3F0BD"/>
<path d="M0.0937843 5.36407C2.1797 4.16874 7.80473 0.875761 7.80473 0.875761C8.02738 0.746864 8.32035 0.817174 8.44927 1.03983L10.793 5.07108C10.9219 5.29373 10.8399 5.57497 10.6172 5.7039L2.03908 10.6258C1.81643 10.7547 1.52346 10.6844 1.39454 10.4617C1.39454 10.4617 0.7383 9.12577 0.0820312 8.00075C0.082061 5.36407 0.0937843 6.23124 0.0937843 5.36407Z" fill="#5EBA6D"/>
<path d="M9.59856 4.94184L7.95795 2.1059C7.88764 1.98872 7.74702 1.95355 7.64154 2.02386L6.22358 2.84417C6.10641 2.91448 6.07124 3.0551 6.14155 3.16058C6.21186 3.27775 6.35248 3.31292 6.45796 3.24261L7.67671 2.53948L9.08298 4.97698L7.86423 5.68011C7.74705 5.75042 7.71188 5.89104 7.78219 5.99652C7.8525 6.1137 7.99312 6.14887 8.0986 6.07856L9.51656 5.25825C9.62201 5.19966 9.66887 5.05904 9.59856 4.94184ZM3.38764 8.25826L2.16889 8.96139L0.762627 6.52386L1.98138 5.82073C2.09855 5.75042 2.13372 5.6098 2.06341 5.50432C1.9931 5.38715 1.85248 5.35198 1.747 5.42229L0.329043 6.24259C0.211869 6.3129 0.176699 6.45352 0.247009 6.559L1.88762 9.39495C1.95793 9.51212 2.09855 9.54729 2.20403 9.47698L3.62199 8.65667C3.73916 8.58636 3.77433 8.44574 3.70402 8.34026C3.64543 8.23481 3.50481 8.18792 3.38764 8.25826ZM3.98529 4.12154C3.08295 4.63715 2.77827 5.78559 3.29388 6.68793C3.82122 7.59027 4.95794 7.89496 5.86028 7.37934C6.76262 6.86372 7.06731 5.71528 6.55169 4.81294C6.02435 3.9223 4.88763 3.60592 3.98529 4.12154ZM9.59856 4.94184L7.95795 2.1059C7.88764 1.98872 7.74702 1.95355 7.64154 2.02386L6.22358 2.84417C6.10641 2.91448 6.07124 3.0551 6.14155 3.16058C6.21186 3.27775 6.35248 3.31292 6.45796 3.24261L7.67671 2.53948L9.08298 4.97698L7.86423 5.68011C7.74705 5.75042 7.71188 5.89104 7.78219 5.99652C7.8525 6.1137 7.99312 6.14887 8.0986 6.07856L9.51656 5.25825C9.62201 5.19966 9.66887 5.05904 9.59856 4.94184ZM3.38764 8.25826L2.16889 8.96139L0.762627 6.52386L1.98138 5.82073C2.09855 5.75042 2.13372 5.6098 2.06341 5.50432C1.9931 5.38715 1.85248 5.35198 1.747 5.42229L0.329043 6.24259C0.211869 6.3129 0.176699 6.45352 0.247009 6.559L1.88762 9.39495C1.95793 9.51212 2.09855 9.54729 2.20403 9.47698L3.62199 8.65667C3.73916 8.58636 3.77433 8.44574 3.70402 8.34026C3.64543 8.23481 3.50481 8.18792 3.38764 8.25826ZM3.98529 4.12154C3.08295 4.63715 2.77827 5.78559 3.29388 6.68793C3.82122 7.59027 4.95794 7.89496 5.86028 7.37934C6.76262 6.86372 7.06731 5.71528 6.55169 4.81294C6.02435 3.9223 4.88763 3.60592 3.98529 4.12154Z" fill="#B3F0BD"/>
<path d="M13.3594 14.1885H1.17189C0.527342 14.1885 0 13.6611 0 13.0166V4.57911H13.3594C14.0039 4.57911 14.5313 5.10645 14.5313 5.751V13.0166C14.5312 13.6611 14.0039 14.1885 13.3594 14.1885ZM0.937509 4.57911H0V3.6416C0 4.15722 0.421861 4.57911 0.937509 4.57911Z" fill="#C47E4D"/>
<path d="M14.5312 11.2588H12.6562C11.7539 11.2588 11.0156 10.5205 11.0156 9.61815C11.0156 8.71581 11.7539 7.97754 12.6562 7.97754H14.5312C14.7891 7.97754 15 8.18847 15 8.44629V10.79C15 11.0478 14.7891 11.2588 14.5312 11.2588Z" fill="#A86A3F"/>
<path d="M12.6563 8.68066C13.1719 8.68066 13.5938 9.10252 13.5938 9.61817C13.5938 10.1338 13.1719 10.5557 12.6563 10.5557C12.1406 10.5557 11.7188 10.1338 11.7188 9.61817C11.7188 9.10252 12.1406 8.68066 12.6563 8.68066Z" fill="#EFC75E"/>
<path d="M12.8906 10.3213C12.375 10.3213 11.9531 9.89943 11.9531 9.38379C11.9531 9.18458 12.0117 8.99707 12.1172 8.84473C11.8711 9.00879 11.7188 9.29003 11.7188 9.61816C11.7188 10.1338 12.1406 10.5557 12.6563 10.5557C12.9727 10.5557 13.2539 10.3916 13.4297 10.1572C13.2773 10.2627 13.0898 10.3213 12.8906 10.3213Z" fill="#D7B354"/>
<path d="M13.3594 13.7197H1.17189C0.527342 13.7197 0 13.1924 0 12.5479V13.0166C0 13.6611 0.527342 14.1885 1.17189 14.1885H13.3594C14.0039 14.1885 14.5313 13.6611 14.5313 13.0166V12.5479C14.5312 13.1924 14.0039 13.7197 13.3594 13.7197Z" fill="#B27245"/>
<path d="M13.3594 4.57911H0.937509C0.421861 4.57911 0 4.15722 0 3.6416V4.11036C0 4.62597 0.421861 5.04787 0.937509 5.04787H13.3594C14.0039 5.04787 14.5313 5.57521 14.5313 6.21975V5.751C14.5312 5.10645 14.0039 4.57911 13.3594 4.57911Z" fill="#CA8B5F"/>
</svg>
