<svg width="21" height="15" viewBox="0 0 21 15" fill="none" xmlns="http://www.w3.org/2000/svg">
<path fill-rule="evenodd" clip-rule="evenodd" d="M13.3016 14.58C17.2784 14.58 20.5016 11.3165 20.5016 7.29C20.5016 3.26349 17.2784 0 13.3016 0C9.32476 0 6.10156 3.26349 6.10156 7.29C6.10156 11.3165 9.32476 14.58 13.3016 14.58ZM13.3016 10.125C14.848 10.125 16.1016 8.85573 16.1016 7.29C16.1016 5.72427 14.848 4.455 13.3016 4.455C11.7552 4.455 10.5016 5.72427 10.5016 7.29C10.5016 8.85573 11.7552 10.125 13.3016 10.125Z" fill="#8A42F9"/>
<path d="M6.1 2.43018H0.5L3.48638 12.1502H6.1V2.43018Z" fill="#8A42F9"/>
</svg>
