<svg width="19" height="15" viewBox="0 0 19 15" fill="none" xmlns="http://www.w3.org/2000/svg">
<g clip-path="url(#clip0_979_28225)">
<path d="M11.9465 10.7712H6.91406V1.68384H11.9465V10.7712Z" fill="#6C6BBD"/>
<path d="M18.5548 9.80714V9.58301H18.4967L18.4294 9.73699L18.3625 9.58301H18.304V9.80714H18.3453V9.63816L18.4082 9.78401H18.451L18.5139 9.63776V9.80714H18.5548ZM18.1859 9.80714V9.62126H18.2604V9.58341H18.0703V9.62126H18.1449V9.80714H18.1859Z" fill="#0099DF"/>
<path d="M16.0396 14.7956V14.8335H16.0744C16.082 14.8335 16.0886 14.8316 16.093 14.8287C16.0977 14.8258 16.1003 14.8206 16.1003 14.8144C16.1003 14.8082 16.0977 14.8034 16.093 14.8004C16.0886 14.7971 16.082 14.7956 16.0744 14.7956H16.0396ZM16.0747 14.7692C16.0926 14.7692 16.1065 14.7733 16.1164 14.7813C16.1263 14.7894 16.131 14.8004 16.131 14.8144C16.131 14.8262 16.1274 14.8357 16.1193 14.8434C16.1117 14.8507 16.1003 14.8555 16.086 14.8574L16.1321 14.9106H16.0963L16.0535 14.8577H16.0396V14.9106H16.0096V14.7692H16.0747ZM16.0656 14.9591C16.082 14.9591 16.0974 14.9562 16.1113 14.95C16.1255 14.9437 16.138 14.9353 16.1486 14.9246C16.1592 14.914 16.1676 14.9014 16.1738 14.8867C16.1797 14.8724 16.1829 14.857 16.1829 14.8405C16.1829 14.8239 16.1797 14.8085 16.1738 14.7942C16.1676 14.7798 16.1592 14.767 16.1486 14.7564C16.138 14.7457 16.1255 14.7372 16.1113 14.7313C16.0974 14.7251 16.082 14.7221 16.0656 14.7221C16.0491 14.7221 16.0334 14.7251 16.0191 14.7313C16.0045 14.7372 15.9917 14.7457 15.9811 14.7564C15.9705 14.767 15.9621 14.7798 15.9562 14.7942C15.95 14.8085 15.9471 14.8239 15.9471 14.8405C15.9471 14.857 15.95 14.8724 15.9562 14.8867C15.9621 14.9014 15.9705 14.914 15.9811 14.9246C15.9917 14.9353 16.0045 14.9437 16.0191 14.95C16.0334 14.9562 16.0491 14.9591 16.0656 14.9591ZM16.0656 14.688C16.0871 14.688 16.1069 14.692 16.1255 14.7001C16.1445 14.7078 16.1607 14.7189 16.1749 14.7328C16.1888 14.7464 16.1998 14.7626 16.2078 14.7813C16.2159 14.7997 16.2199 14.8195 16.2199 14.8405C16.2199 14.8614 16.2159 14.8813 16.2078 14.8996C16.1998 14.918 16.1888 14.9342 16.1749 14.9478C16.1607 14.9617 16.1445 14.9728 16.1255 14.9808C16.1069 14.9889 16.0871 14.993 16.0656 14.993C16.0436 14.993 16.0235 14.9889 16.0045 14.9808C15.9855 14.9728 15.9691 14.9617 15.9551 14.9478C15.9412 14.9342 15.9302 14.918 15.9222 14.8996C15.9142 14.8813 15.9102 14.8614 15.9102 14.8405C15.9102 14.8195 15.9142 14.7997 15.9222 14.7813C15.9302 14.7626 15.9412 14.7464 15.9551 14.7328C15.9691 14.7189 15.9855 14.7078 16.0045 14.7001C16.0235 14.692 16.0436 14.688 16.0656 14.688Z" fill="#231F20"/>
<path d="M13.6428 13.3373C13.7097 13.3373 13.8058 13.3502 13.8794 13.3792L13.777 13.6937C13.7068 13.6647 13.6366 13.6552 13.5693 13.6552C13.352 13.6552 13.2434 13.7963 13.2434 14.0498V14.9103H12.9111V13.3759H13.2402V13.5622C13.3265 13.4274 13.4512 13.3373 13.6428 13.3373ZM12.4148 13.6809H11.8718V14.3742C11.8718 14.5282 11.9259 14.6311 12.0923 14.6311C12.1786 14.6311 12.2872 14.6021 12.3859 14.5444L12.4817 14.8299C12.3764 14.9037 12.2104 14.9489 12.0667 14.9489C11.6736 14.9489 11.5364 14.7369 11.5364 14.3805V13.6809H11.2263V13.3759H11.5364V12.9104H11.8718V13.3759H12.4148V13.6809ZM8.16227 14.0083C8.19774 13.7867 8.33154 13.6357 8.56818 13.6357C8.78207 13.6357 8.91956 13.7705 8.95469 14.0083H8.16227ZM9.29991 14.1431C9.29663 13.6647 9.00259 13.3373 8.5744 13.3373C8.12715 13.3373 7.81411 13.6647 7.81411 14.1431C7.81411 14.6307 8.13993 14.9486 8.59703 14.9486C8.82704 14.9486 9.03771 14.8909 9.2231 14.7336L9.05999 14.4863C8.9324 14.5892 8.76929 14.6469 8.61608 14.6469C8.40213 14.6469 8.20724 14.5473 8.15933 14.2714H9.29329C9.29663 14.2295 9.29991 14.1879 9.29991 14.1431ZM10.7597 13.7676C10.6672 13.7096 10.4789 13.6357 10.2839 13.6357C10.1018 13.6357 9.99324 13.7033 9.99324 13.8158C9.99324 13.9182 10.108 13.9473 10.2518 13.9664L10.4083 13.9888C10.7407 14.0373 10.9418 14.1784 10.9418 14.4481C10.9418 14.7402 10.6862 14.9489 10.2455 14.9489C9.99617 14.9489 9.76616 14.8846 9.58405 14.7497L9.74054 14.4896C9.85246 14.5763 10.0189 14.6502 10.2489 14.6502C10.4755 14.6502 10.597 14.583 10.597 14.4639C10.597 14.3776 10.5107 14.3291 10.3286 14.3037L10.1721 14.2813C9.83012 14.2328 9.64473 14.0788 9.64473 13.8286C9.64473 13.5236 9.89415 13.3373 10.2807 13.3373C10.5235 13.3373 10.744 13.3921 10.9035 13.4979L10.7597 13.7676ZM14.8572 13.6545C14.7888 13.6545 14.7256 13.6666 14.6667 13.6905C14.6082 13.7147 14.5573 13.7485 14.5145 13.7919C14.4718 13.8352 14.4381 13.8874 14.4136 13.948C14.3891 14.0086 14.3771 14.0755 14.3771 14.1482C14.3771 14.2214 14.3891 14.2879 14.4136 14.3485C14.4381 14.4091 14.4718 14.4613 14.5145 14.5047C14.5573 14.5481 14.6082 14.5819 14.6667 14.6061C14.7256 14.6303 14.7888 14.6421 14.8572 14.6421C14.9256 14.6421 14.9892 14.6303 15.0478 14.6061C15.1066 14.5819 15.1578 14.5481 15.2006 14.5047C15.2441 14.4613 15.2778 14.4091 15.3026 14.3485C15.3271 14.2879 15.3392 14.2214 15.3392 14.1482C15.3392 14.0755 15.3271 14.0086 15.3026 13.948C15.2778 13.8874 15.2441 13.8352 15.2006 13.7919C15.1578 13.7485 15.1066 13.7147 15.0478 13.6905C14.9892 13.6666 14.9256 13.6545 14.8572 13.6545ZM14.8572 13.3373C14.9757 13.3373 15.0854 13.3579 15.1863 13.3995C15.2873 13.4406 15.3747 13.4975 15.4481 13.5699C15.522 13.6423 15.5795 13.7279 15.6212 13.8264C15.6628 13.9252 15.6837 14.0325 15.6837 14.1482C15.6837 14.264 15.6628 14.3713 15.6212 14.4701C15.5795 14.5686 15.522 14.6546 15.4481 14.727C15.3747 14.7994 15.2873 14.856 15.1863 14.8974C15.0854 14.9386 14.9757 14.9592 14.8572 14.9592C14.7387 14.9592 14.629 14.9386 14.5281 14.8974C14.4271 14.856 14.3405 14.7994 14.2674 14.727C14.1943 14.6546 14.1368 14.5686 14.0951 14.4701C14.0534 14.3713 14.0326 14.264 14.0326 14.1482C14.0326 14.0325 14.0534 13.9252 14.0951 13.8264C14.1368 13.7279 14.1943 13.6423 14.2674 13.5699C14.3405 13.4975 14.4271 13.4406 14.5281 13.3995C14.629 13.3579 14.7387 13.3373 14.8572 13.3373ZM6.22116 14.1431C6.22116 13.8734 6.39711 13.6519 6.68453 13.6519C6.95917 13.6519 7.14456 13.8639 7.14456 14.1431C7.14456 14.4224 6.95917 14.634 6.68453 14.634C6.39711 14.634 6.22116 14.4128 6.22116 14.1431ZM7.4576 14.1431V13.3759H7.1255V13.5622C7.01985 13.424 6.86043 13.3373 6.64319 13.3373C6.215 13.3373 5.87962 13.6742 5.87962 14.1431C5.87962 14.6116 6.215 14.9489 6.64319 14.9489C6.86043 14.9489 7.01985 14.8622 7.1255 14.724V14.9103H7.4576V14.1431ZM5.58563 14.9103V13.9473C5.58563 13.5846 5.35561 13.3407 4.98518 13.3373C4.79027 13.334 4.58877 13.395 4.44835 13.6103C4.34303 13.4402 4.17665 13.3373 3.94334 13.3373C3.78061 13.3373 3.62081 13.3855 3.4961 13.5652V13.3759H3.16406V14.9103H3.4994V14.0597C3.4994 13.7933 3.6464 13.6519 3.87312 13.6519C4.09363 13.6519 4.20553 13.7963 4.20553 14.0564V14.9103H4.54087V14.0597C4.54087 13.7933 4.69445 13.6519 4.9146 13.6519C5.14169 13.6519 5.2503 13.7963 5.2503 14.0564V14.9103H5.58563Z" fill="#9A9C9E"/>
<path d="M18.7318 6.2269C18.7318 9.41879 16.1569 12.0063 12.9806 12.0063C11.6389 12.0063 10.4043 11.5444 9.42578 10.7706C10.7638 9.71238 11.6228 8.07034 11.6228 6.2269C11.6228 4.38348 10.7638 2.74141 9.42578 1.68319C10.4043 0.909377 11.6389 0.44751 12.9806 0.44751C16.1569 0.44751 18.7318 3.03499 18.7318 6.2269Z" fill="#0099DF"/>
<path d="M7.23391 6.2269C7.23391 4.38348 8.09294 2.74141 9.4306 1.68319C8.45239 0.909377 7.21785 0.44751 5.8761 0.44751C2.69979 0.44751 0.125 3.03499 0.125 6.2269C0.125 9.41879 2.69979 12.0063 5.8761 12.0063C7.21785 12.0063 8.45239 11.5444 9.4306 10.7706C8.09294 9.71238 7.23391 8.07034 7.23391 6.2269Z" fill="#EB001B"/>
</g>
<defs>
<clipPath id="clip0_979_28225">
<rect width="19" height="15" fill="white"/>
</clipPath>
</defs>
</svg>
