<svg width="19" height="15" viewBox="0 0 19 15" fill="none" xmlns="http://www.w3.org/2000/svg">
<path d="M18.6136 14.7969V14.8359H18.6491C18.6569 14.8359 18.6636 14.834 18.6685 14.831C18.6729 14.828 18.6755 14.8226 18.6755 14.8162C18.6755 14.8097 18.6729 14.8048 18.6685 14.8018C18.6636 14.7984 18.6569 14.7969 18.6491 14.7969H18.6136ZM18.6494 14.7696C18.6677 14.7696 18.6819 14.7737 18.692 14.7821C18.7021 14.7904 18.7069 14.8018 18.7069 14.8162C18.7069 14.8283 18.7032 14.8382 18.695 14.8461C18.6871 14.8537 18.6759 14.8586 18.661 14.8605L18.7081 14.9155H18.6715L18.6278 14.8609H18.6136V14.9155H18.583V14.7696H18.6494ZM18.6401 14.9658C18.6569 14.9658 18.6725 14.9624 18.6868 14.956C18.7013 14.9496 18.714 14.9409 18.7248 14.9298C18.7357 14.9189 18.7443 14.906 18.7506 14.8908C18.7566 14.8761 18.7599 14.8601 18.7599 14.8431C18.7599 14.8261 18.7566 14.8101 18.7506 14.7954C18.7443 14.7806 18.7357 14.7673 18.7248 14.7563C18.714 14.7453 18.7013 14.7366 18.6868 14.7302C18.6725 14.7241 18.6569 14.7211 18.6401 14.7211C18.6233 14.7211 18.6072 14.7241 18.5927 14.7302C18.5777 14.7366 18.5646 14.7453 18.5538 14.7563C18.543 14.7673 18.5344 14.7806 18.5284 14.7954C18.5221 14.8101 18.5191 14.8261 18.5191 14.8431C18.5191 14.8601 18.5221 14.8761 18.5284 14.8908C18.5344 14.906 18.543 14.9189 18.5538 14.9298C18.5646 14.9409 18.5777 14.9496 18.5927 14.956C18.6072 14.9624 18.6233 14.9658 18.6401 14.9658ZM18.6401 14.6859C18.6621 14.6859 18.6823 14.69 18.7017 14.6983C18.7207 14.7063 18.7372 14.7176 18.7517 14.7321C18.7659 14.7461 18.7772 14.7628 18.7853 14.7821C18.7936 14.801 18.7977 14.8215 18.7977 14.8431C18.7977 14.8647 18.7936 14.8851 18.7853 14.9041C18.7772 14.923 18.7659 14.9397 18.7517 14.9541C18.7372 14.9681 18.7207 14.9795 18.7017 14.9878C18.6823 14.9962 18.6621 15.0003 18.6401 15.0003C18.6177 15.0003 18.5971 14.9962 18.5777 14.9878C18.5583 14.9795 18.5415 14.9681 18.5273 14.9541C18.5131 14.9397 18.5019 14.923 18.4937 14.9041C18.4855 14.8851 18.4814 14.8647 18.4814 14.8431C18.4814 14.8215 18.4855 14.801 18.4937 14.7821C18.5019 14.7628 18.5131 14.7461 18.5273 14.7321C18.5415 14.7176 18.5583 14.7063 18.5777 14.6983C18.5971 14.69 18.6177 14.6859 18.6401 14.6859ZM4.09098 14.1239C4.09098 13.8457 4.27059 13.6173 4.56411 13.6173C4.84455 13.6173 5.03388 13.8359 5.03388 14.1239C5.03388 14.4119 4.84455 14.6305 4.56411 14.6305C4.27059 14.6305 4.09098 14.402 4.09098 14.1239ZM5.35354 14.1239V13.3327H5.01446V13.5248C4.90691 13.3824 4.74373 13.2929 4.52191 13.2929C4.08463 13.2929 3.74182 13.6408 3.74182 14.1239C3.74182 14.6074 4.08463 14.9549 4.52191 14.9549C4.74373 14.9549 4.90691 14.8655 5.01446 14.723V14.9151H5.35354V14.1239ZM16.8118 14.1239C16.8118 13.8457 16.9914 13.6173 17.2849 13.6173C17.5657 13.6173 17.7547 13.8359 17.7547 14.1239C17.7547 14.4119 17.5657 14.6305 17.2849 14.6305C16.9914 14.6305 16.8118 14.402 16.8118 14.1239ZM18.0747 14.1239V12.6973H17.7353V13.5248C17.6277 13.3824 17.4646 13.2929 17.2427 13.2929C16.8054 13.2929 16.4626 13.6408 16.4626 14.1239C16.4626 14.6074 16.8054 14.9549 17.2427 14.9549C17.4646 14.9549 17.6277 14.8655 17.7353 14.723V14.9151H18.0747V14.1239ZM9.56245 13.601C9.78089 13.601 9.92132 13.7401 9.95713 13.9848H9.1479C9.18418 13.7563 9.3208 13.601 9.56245 13.601ZM9.56919 13.2929C9.11209 13.2929 8.79243 13.6306 8.79243 14.1239C8.79243 14.6271 9.12516 14.9549 9.59193 14.9549C9.82684 14.9549 10.0419 14.8954 10.2313 14.7332L10.0651 14.4782C9.93439 14.5839 9.76782 14.6438 9.61133 14.6438C9.39289 14.6438 9.19385 14.5411 9.14497 14.2561H10.3029C10.3063 14.2133 10.3097 14.1702 10.3097 14.1239C10.3063 13.6306 10.0061 13.2929 9.56919 13.2929ZM13.6634 14.1239C13.6634 13.8457 13.843 13.6173 14.1366 13.6173C14.417 13.6173 14.6063 13.8359 14.6063 14.1239C14.6063 14.4119 14.417 14.6305 14.1366 14.6305C13.843 14.6305 13.6634 14.402 13.6634 14.1239ZM14.926 14.1239V13.3327H14.5869V13.5248C14.479 13.3824 14.3162 13.2929 14.0944 13.2929C13.6571 13.2929 13.3143 13.6408 13.3143 14.1239C13.3143 14.6074 13.6571 14.9549 14.0944 14.9549C14.3162 14.9549 14.479 14.8655 14.5869 14.723V14.9151H14.926V14.1239ZM11.7485 14.1239C11.7485 14.604 12.0778 14.9549 12.5805 14.9549C12.8154 14.9549 12.9719 14.9018 13.1414 14.7662L12.9785 14.488C12.8512 14.5809 12.7175 14.6305 12.5704 14.6305C12.2997 14.6271 12.1006 14.4286 12.1006 14.1239C12.1006 13.8193 12.2997 13.6207 12.5704 13.6173C12.7175 13.6173 12.8512 13.6669 12.9785 13.7597L13.1414 13.4816C12.9719 13.346 12.8154 13.2929 12.5805 13.2929C12.0778 13.2929 11.7485 13.6438 11.7485 14.1239ZM16.1202 13.2929C15.9245 13.2929 15.7972 13.3858 15.7091 13.5248V13.3327H15.373V14.9151H15.7124V14.0281C15.7124 13.7662 15.8233 13.6207 16.0451 13.6207C16.1138 13.6207 16.1856 13.6306 16.2572 13.6605L16.3618 13.3361C16.2867 13.3062 16.1889 13.2929 16.1202 13.2929ZM7.03061 13.4585C6.86739 13.3494 6.64261 13.2929 6.39463 13.2929C5.99955 13.2929 5.74526 13.4851 5.74526 13.7995C5.74526 14.0576 5.9346 14.2167 6.2834 14.2664L6.44357 14.2895C6.62954 14.316 6.71729 14.3657 6.71729 14.4551C6.71729 14.5775 6.59333 14.6472 6.36181 14.6472C6.1269 14.6472 5.95734 14.571 5.84311 14.4816L5.68327 14.7495C5.86925 14.8885 6.1041 14.9549 6.35842 14.9549C6.80877 14.9549 7.06982 14.7396 7.06982 14.4384C7.06982 14.1603 6.86445 14.0148 6.52498 13.9651L6.36515 13.9416C6.21839 13.922 6.10076 13.8924 6.10076 13.7863C6.10076 13.6703 6.21166 13.601 6.39763 13.601C6.59666 13.601 6.78937 13.6772 6.88385 13.7367L7.03061 13.4585ZM11.4057 13.2929C11.21 13.2929 11.0827 13.3858 10.9949 13.5248V13.3327H10.6588V14.9151H10.9979V14.0281C10.9979 13.7662 11.1088 13.6207 11.3306 13.6207C11.3993 13.6207 11.471 13.6306 11.5427 13.6605L11.6473 13.3361C11.5722 13.3062 11.4744 13.2929 11.4057 13.2929ZM8.51198 13.3327H7.95747V12.8526H7.61466V13.3327H7.29834V13.6472H7.61466V14.3691C7.61466 14.7362 7.75503 14.9549 8.1561 14.9549C8.30321 14.9549 8.47277 14.9087 8.58032 14.8325L8.4825 14.5376C8.38128 14.5972 8.27039 14.6271 8.18224 14.6271C8.01274 14.6271 7.95747 14.521 7.95747 14.3623V13.6472H8.51198V13.3327ZM3.44196 14.9151V13.922C3.44196 13.5479 3.20708 13.2963 2.82842 13.2929C2.62938 13.2895 2.42399 13.3524 2.28023 13.5745C2.17268 13.399 2.00314 13.2929 1.7649 13.2929C1.59835 13.2929 1.43553 13.3426 1.30819 13.5279V13.3327H0.96875V14.9151H1.31118V14.0379C1.31118 13.7632 1.4613 13.6173 1.6932 13.6173C1.91838 13.6173 2.03227 13.7662 2.03227 14.0345V14.9151H2.37508V14.0379C2.37508 13.7632 2.53154 13.6173 2.75672 13.6173C2.98824 13.6173 3.09915 13.7662 3.09915 14.0345V14.9151H3.44196Z" fill="#9A9C9E"/>
<path d="M18.8229 9.65226V9.42114H18.7636L18.6949 9.57991L18.6265 9.42114H18.5668V9.65226H18.609V9.47797L18.6732 9.62837H18.7169L18.7811 9.47757V9.65226H18.8229ZM18.4462 9.65226V9.46055H18.5223V9.42149H18.3281V9.46055H18.4044V9.65226H18.4462Z" fill="#F79410"/>
<path d="M12.0687 10.6466H6.92969V1.27515H12.0687V10.6466Z" fill="#FF5F00"/>
<path d="M7.25944 5.9601C7.25944 4.05907 8.13661 2.36567 9.50259 1.27437C8.50371 0.476366 7.24297 6.10352e-05 5.8729 6.10352e-05C2.6293 6.10352e-05 0 2.66843 0 5.9601C0 9.2518 2.6293 11.9202 5.8729 11.9202C7.24297 11.9202 8.50371 11.4439 9.50259 10.6459C8.13661 9.55457 7.25944 7.86118 7.25944 5.9601Z" fill="#EB001B"/>
<path d="M19.0029 5.96004C19.0029 9.25173 16.3737 11.9201 13.1301 11.9201C11.76 11.9201 10.4993 11.4438 9.5 10.6458C10.8663 9.5545 11.7436 7.86112 11.7436 5.96004C11.7436 4.05901 10.8663 2.36561 9.5 1.27431C10.4993 0.476305 11.76 0 13.1301 0C16.3737 0 19.0029 2.66837 19.0029 5.96004Z" fill="#F79E1B"/>
</svg>
