<svg width="34" height="9" viewBox="0 0 34 9" fill="none" xmlns="http://www.w3.org/2000/svg">
<path d="M6.14736 0.431566C5.72919 0.144088 5.1835 0 4.51031 0H1.90408C1.6977 0 1.58369 0.103211 1.56203 0.309435L0.503323 6.9552C0.49232 7.02047 0.508651 7.08017 0.552166 7.13444C0.595432 7.18881 0.649851 7.21584 0.715024 7.21584H1.95297C2.1701 7.21584 2.28944 7.11288 2.31135 6.90641L2.6045 5.11472C2.61521 5.02789 2.65339 4.95729 2.71857 4.90292C2.78369 4.84865 2.86515 4.81315 2.96288 4.79692C3.06062 4.78079 3.15277 4.77262 3.2398 4.77262C3.32659 4.77262 3.4297 4.77815 3.54934 4.78895C3.66868 4.79976 3.74476 4.80508 3.77737 4.80508C4.71121 4.80508 5.44419 4.54195 5.97639 4.01509C6.50833 3.48853 6.7746 2.75833 6.7746 1.8242C6.7746 1.18352 6.56534 0.719343 6.14736 0.431417V0.431566ZM4.80362 2.42709C4.74915 2.80722 4.60814 3.05686 4.38011 3.17635C4.15203 3.296 3.82626 3.35554 3.40281 3.35554L2.86524 3.37177L3.14222 1.62883C3.16383 1.50949 3.23438 1.44974 3.35392 1.44974H3.66351C4.09766 1.44974 4.41277 1.51232 4.60824 1.63699C4.80361 1.76196 4.86879 2.02539 4.80362 2.42709Z" fill="#003087"/>
<path d="M33.6484 0H32.4432C32.3234 0 32.2529 0.0597468 32.2314 0.179289L31.1726 6.9555L31.1562 6.98806C31.1562 7.04263 31.178 7.09396 31.2215 7.14285C31.2647 7.19165 31.3193 7.21609 31.3843 7.21609H32.4596C32.6655 7.21609 32.7796 7.11313 32.8017 6.90666L33.8604 0.244462V0.22828C33.8603 0.0761767 33.7895 0.000199804 33.6484 0.000199804V0Z" fill="#009CDE"/>
<path d="M19.088 2.62275C19.088 2.56858 19.0662 2.5169 19.023 2.46815C18.9794 2.41931 18.9305 2.39471 18.8764 2.39471H17.6221C17.5025 2.39471 17.4047 2.44928 17.3288 2.55757L15.6023 5.09873L14.8856 2.65541C14.831 2.48179 14.7117 2.39471 14.5272 2.39471H13.3054C13.2509 2.39471 13.2021 2.41921 13.1589 2.46815C13.1154 2.5169 13.0938 2.56868 13.0938 2.62275C13.0938 2.6446 13.1997 2.96484 13.4114 3.58381C13.6231 4.20298 13.8511 4.87084 14.0955 5.5876C14.3398 6.3042 14.4673 6.68449 14.4782 6.72755C13.5877 7.94399 13.1426 8.59552 13.1426 8.68225C13.1426 8.82355 13.2131 8.89405 13.3544 8.89405H14.6086C14.728 8.89405 14.8257 8.83988 14.9019 8.73124L19.0556 2.73671C19.0772 2.7152 19.088 2.67736 19.088 2.6227V2.62275Z" fill="#003087"/>
<path d="M30.7708 2.39478H29.5329C29.3807 2.39478 29.2887 2.57402 29.2561 2.93245C28.9734 2.49819 28.4579 2.28076 27.7085 2.28076C26.9267 2.28076 26.2614 2.57402 25.7132 3.16043C25.1647 3.74684 24.8906 4.43661 24.8906 5.22925C24.8906 5.87008 25.0779 6.38041 25.4525 6.76035C25.8271 7.14069 26.3293 7.33048 26.9594 7.33048C27.2742 7.33048 27.5946 7.26521 27.9203 7.13501C28.2461 7.00471 28.5011 6.83105 28.686 6.61377C28.686 6.62468 28.6749 6.67337 28.6535 6.7602C28.6315 6.84723 28.6208 6.9126 28.6208 6.95567C28.6208 7.12963 28.6912 7.21626 28.8326 7.21626H29.9566C30.1627 7.21626 30.2823 7.1133 30.3147 6.90683L30.9827 2.65537C30.9934 2.59015 30.9772 2.53055 30.9338 2.47618C30.8901 2.42201 30.836 2.39478 30.7708 2.39478ZM28.6452 5.60386C28.3683 5.87536 28.0343 6.01103 27.6434 6.01103C27.3283 6.01103 27.0734 5.9243 26.8778 5.75044C26.6822 5.57707 26.5845 5.33814 26.5845 5.03373C26.5845 4.63223 26.7203 4.29257 26.9919 4.0157C27.263 3.73877 27.5999 3.60036 28.0017 3.60036C28.3055 3.60036 28.5581 3.68993 28.7592 3.86902C28.9598 4.04826 29.0606 4.29531 29.0606 4.61033C29.0605 5.00122 28.9221 5.33251 28.6452 5.60386Z" fill="#009CDE"/>
<path d="M12.2632 2.39478H11.0252C10.873 2.39478 10.7809 2.57402 10.7482 2.93245C10.455 2.49819 9.93919 2.28076 9.20078 2.28076C8.4189 2.28076 7.75368 2.57402 7.20537 3.16043C6.6569 3.74684 6.38281 4.43661 6.38281 5.22925C6.38281 5.87008 6.57017 6.38041 6.94482 6.76035C7.31948 7.14069 7.82159 7.33048 8.45152 7.33048C8.75542 7.33048 9.07053 7.26521 9.39625 7.13501C9.72201 7.00471 9.98265 6.83105 10.1781 6.61377C10.1346 6.74397 10.113 6.85804 10.113 6.95567C10.113 7.12963 10.1835 7.21626 10.3247 7.21626H11.4486C11.6548 7.21626 11.7744 7.1133 11.807 6.90683L12.4748 2.65537C12.4855 2.59015 12.4693 2.53055 12.426 2.47618C12.3825 2.42201 12.3283 2.39478 12.2632 2.39478ZM10.1375 5.61192C9.86052 5.87829 9.52102 6.01103 9.11947 6.01103C8.80436 6.01103 8.55189 5.9243 8.362 5.75044C8.17185 5.57707 8.07691 5.33814 8.07691 5.03373C8.07691 4.63223 8.21258 4.29257 8.48418 4.0157C8.75547 3.73877 9.09214 3.60031 9.49408 3.60031C9.79799 3.60031 10.0505 3.68993 10.2516 3.86902C10.4523 4.04826 10.5529 4.29531 10.5529 4.61033C10.5528 5.01212 10.4144 5.34615 10.1375 5.61192Z" fill="#003087"/>
<path d="M24.6513 0.431566C24.2332 0.144088 23.6877 0 23.0144 0H20.4244C20.2071 0 20.0876 0.103211 20.066 0.309435L19.0072 6.9552C18.9962 7.02047 19.0126 7.08017 19.0561 7.13444C19.0992 7.18881 19.1538 7.21584 19.2189 7.21584H20.5546C20.6849 7.21584 20.7717 7.14534 20.8152 7.00414L21.1085 5.11472C21.1193 5.02789 21.1572 4.95729 21.2225 4.90292C21.2877 4.84865 21.369 4.81315 21.4669 4.79692C21.5645 4.78079 21.6567 4.77262 21.7438 4.77262C21.8306 4.77262 21.9336 4.77815 22.0532 4.78895C22.1726 4.79976 22.2489 4.80508 22.2812 4.80508C23.2152 4.80508 23.9481 4.54195 24.4803 4.01509C25.0124 3.48853 25.2784 2.75833 25.2784 1.8242C25.2785 1.18352 25.0693 0.719294 24.6513 0.431417V0.431566ZM22.9818 3.11113C22.7429 3.27399 22.3844 3.35539 21.9068 3.35539L21.3854 3.37172L21.6623 1.62873C21.6839 1.50944 21.7545 1.44959 21.874 1.44959H22.1672C22.4061 1.44959 22.5961 1.46049 22.7375 1.48215C22.8784 1.50396 23.0144 1.57172 23.1446 1.68569C23.275 1.79975 23.3401 1.96545 23.3401 2.18253C23.3401 2.63879 23.2205 2.94812 22.9818 3.11113Z" fill="#009CDE"/>
</svg>
