<svg width="10" height="10" viewBox="0 0 10 10" fill="none" xmlns="http://www.w3.org/2000/svg">
<path d="M0.960862 7.62622C0.570338 8.01674 0.570338 8.64991 0.960862 9.04043C1.35139 9.43095 1.98455 9.43095 2.37508 9.04043L0.960862 7.62622ZM5.70841 5.7071C6.09893 5.31657 6.09893 4.68341 5.70841 4.29288C5.31788 3.90236 4.68472 3.90236 4.2942 4.29288L5.70841 5.7071ZM4.2942 4.29288C3.90367 4.68341 3.90367 5.31657 4.2942 5.7071C4.68472 6.09762 5.31788 6.09762 5.70841 5.7071L4.2942 4.29288ZM9.04174 2.37376C9.43227 1.98324 9.43227 1.35007 9.04174 0.95955C8.65122 0.569025 8.01805 0.569025 7.62753 0.95955L9.04174 2.37376ZM5.70841 4.29288C5.31788 3.90236 4.68472 3.90236 4.2942 4.29288C3.90367 4.68341 3.90367 5.31657 4.2942 5.7071L5.70841 4.29288ZM7.62753 9.04043C8.01805 9.43095 8.65122 9.43095 9.04174 9.04043C9.43227 8.64991 9.43227 8.01674 9.04174 7.62622L7.62753 9.04043ZM4.2942 5.7071C4.68472 6.09762 5.31788 6.09762 5.70841 5.7071C6.09893 5.31657 6.09893 4.68341 5.70841 4.29288L4.2942 5.7071ZM2.37508 0.95955C1.98455 0.569025 1.35139 0.569025 0.960862 0.95955C0.570338 1.35007 0.570338 1.98324 0.960862 2.37376L2.37508 0.95955ZM2.37508 9.04043L5.70841 5.7071L4.2942 4.29288L0.960862 7.62622L2.37508 9.04043ZM5.70841 5.7071L9.04174 2.37376L7.62753 0.95955L4.2942 4.29288L5.70841 5.7071ZM4.2942 5.7071L7.62753 9.04043L9.04174 7.62622L5.70841 4.29288L4.2942 5.7071ZM5.70841 4.29288L2.37508 0.95955L0.960862 2.37376L4.2942 5.7071L5.70841 4.29288Z" fill="#E2E4EB"/>
</svg>
